<?xml version="1.0" standalone="no"?>
<!DOCTYPE svg PUBLIC "-//W3C//DTD SVG 20010904//EN"
 "http://www.w3.org/TR/2001/REC-SVG-20010904/DTD/svg10.dtd">
<svg version="1.0" xmlns="http://www.w3.org/2000/svg"
 width="304.000000pt" height="304.000000pt" viewBox="0 0 304.000000 304.000000"
 preserveAspectRatio="xMidYMid meet">
<metadata>
Created by potrace 1.14, written by Peter Selinger 2001-2017
</metadata>
<g transform="translate(0.000000,304.000000) scale(0.100000,-0.100000)"
fill="#000000" stroke="none">
<path d="M131 1763 c-7 -8 -11 -86 -11 -247 0 -204 2 -235 16 -240 9 -3 119
-6 244 -6 208 0 230 2 238 18 14 28 8 460 -6 474 -17 17 -465 18 -481 1z m139
-79 c0 -6 -58 -34 -70 -34 -19 0 -10 19 17 34 23 12 53 12 53 0z m225 -27 l50
-26 -37 -1 c-20 0 -47 -4 -60 -9 -13 -5 -46 -19 -75 -30 -64 -26 -96 -26 -153
0 l-45 20 65 31 c131 62 162 64 255 15z m54 -61 c9 -11 2 -15 -43 -20 -32 -4
-63 -3 -73 3 -16 9 -16 11 7 20 37 14 96 13 109 -3z m-273 -74 c16 -20 18 -61
5 -81 -6 -10 -5 -27 5 -49 18 -43 18 -42 -6 -42 -13 0 -25 12 -35 36 -8 21
-19 33 -25 29 -6 -4 -9 -13 -6 -21 8 -20 -4 -44 -20 -44 -16 0 -16 -1 -18 105
-1 44 3 83 7 86 16 11 80 -2 93 -19z m122 22 c12 -4 22 -14 22 -23 0 -14 -7
-17 -30 -13 -32 5 -32 5 -34 -63 -2 -41 8 -65 26 -65 6 0 8 17 4 45 -7 43 -6
45 18 45 25 0 26 -3 26 -55 0 -30 -1 -55 -3 -55 -1 0 -17 -4 -34 -9 -52 -15
-77 11 -78 85 -2 80 9 103 55 113 3 0 15 -2 28 -5z m92 -6 c4 -4 5 -38 5 -75
-1 -62 6 -82 28 -83 4 0 7 36 7 80 0 73 2 80 20 80 18 0 20 -7 20 -84 0 -88
-5 -98 -49 -109 -16 -4 -30 1 -45 16 -19 19 -22 32 -20 102 1 44 2 81 3 83 2
4 26 -3 31 -10z"/>
<path d="M214 1483 c2 -17 10 -29 20 -31 14 -3 17 2 14 25 -2 16 -10 29 -20
31 -13 3 -16 -3 -14 -25z"/>
<path d="M929 1765 c-36 -20 -46 -49 -44 -138 2 -92 21 -121 80 -121 59 0 78
28 80 121 2 94 -8 120 -53 139 -19 8 -35 14 -36 14 0 -1 -13 -7 -27 -15z m48
-57 c5 -7 9 -42 9 -78 -1 -58 -3 -65 -21 -65 -18 0 -20 7 -22 60 -2 87 9 115
34 83z"/>
<path d="M1856 1763 c-38 -20 -46 -43 -46 -130 1 -102 26 -135 99 -127 53 6
61 18 61 94 l0 68 -36 0 c-40 0 -54 -20 -36 -49 19 -30 15 -59 -8 -59 -18 0
-20 7 -20 75 0 53 4 75 13 76 24 3 42 1 60 -6 28 -11 23 41 -5 57 -32 16 -52
17 -82 1z"/>
<path d="M2040 1762 c-38 -25 -40 -30 -40 -125 0 -80 2 -90 25 -113 19 -19 31
-23 56 -19 73 13 83 33 77 150 -3 66 -7 78 -30 100 -16 15 -29 21 -33 14 -4
-6 -11 -7 -18 -1 -8 7 -21 4 -37 -6z m60 -123 c0 -55 -3 -71 -16 -76 -24 -9
-30 10 -28 76 2 68 8 83 29 74 11 -4 15 -23 15 -74z"/>
<path d="M2609 1761 c-18 -10 -35 -26 -39 -37 -5 -16 -6 -125 -1 -178 2 -20
66 -48 95 -40 46 11 59 38 61 122 2 90 -12 125 -54 140 -23 8 -36 7 -62 -7z
m56 -125 c-1 -70 -6 -82 -29 -73 -17 7 -20 124 -3 145 19 25 33 -6 32 -72z"/>
<path d="M705 1762 c-3 -3 -5 -61 -5 -129 l0 -123 30 0 c29 0 30 2 28 40 -4
52 13 53 32 1 13 -37 18 -41 47 -41 l33 0 -20 51 c-17 47 -18 53 -3 75 19 30
11 84 -17 109 -19 17 -112 29 -125 17z m93 -78 c2 -11 -4 -26 -12 -34 -13 -10
-17 -9 -25 11 -4 13 -6 30 -3 37 7 20 37 10 40 -14z"/>
<path d="M1079 1756 c-1 -15 -1 -218 0 -233 1 -9 19 -13 56 -13 47 0 60 4 80
25 17 20 22 34 18 58 -3 18 -10 35 -15 38 -6 4 -7 16 -2 30 14 42 13 49 -10
75 -17 21 -32 26 -74 28 -32 2 -52 -2 -53 -8z m88 -70 c-9 -22 -39 -21 -35 2
2 9 7 20 13 24 14 10 29 -8 22 -26z m7 -91 c6 -16 -19 -39 -34 -30 -11 7 -14
38 -4 48 9 8 32 -2 38 -18z"/>
<path d="M1265 1762 c-3 -3 -5 -61 -5 -129 l0 -123 64 0 c61 0 64 1 64 25 0
20 -6 25 -27 26 -14 1 -30 1 -34 0 -5 -1 -7 11 -5 26 2 22 8 28 28 28 20 0 26
6 28 28 3 24 0 27 -27 27 -24 0 -31 4 -31 19 0 15 8 21 33 23 31 3 34 9 28 46
-1 8 -108 12 -116 4z"/>
<path d="M1417 1755 c-2 -5 -3 -62 -3 -125 l1 -115 28 -3 c25 -3 27 -1 27 37
0 55 16 59 32 9 13 -37 19 -43 46 -46 18 -2 32 -2 32 1 0 2 -7 24 -16 50 -11
34 -13 51 -5 66 6 11 11 36 11 56 0 52 -33 79 -99 80 -28 0 -52 -4 -54 -10z
m93 -75 c0 -15 -6 -30 -14 -33 -19 -8 -26 1 -26 33 0 32 7 41 26 33 8 -3 14
-18 14 -33z"/>
<path d="M1591 1755 c-14 -19 -6 -40 17 -43 24 -4 24 -5 23 -134 l-1 -68 30 0
30 0 0 99 c0 96 1 100 23 103 16 2 22 10 22 28 0 24 -3 25 -68 25 -38 1 -71
-4 -76 -10z"/>
<path d="M2203 1763 c-10 -4 -13 -39 -13 -129 l0 -125 28 3 c27 3 29 6 31 61
1 38 18 25 31 -23 10 -37 14 -40 45 -40 l35 0 -18 48 c-16 40 -16 52 -6 77 31
71 -1 125 -76 129 -25 2 -51 1 -57 -1z m87 -83 c0 -23 -36 -47 -42 -28 -2 6
-2 24 0 39 4 24 7 27 23 18 10 -5 19 -18 19 -29z"/>
<path d="M2379 1751 c-1 -20 -1 -200 0 -223 1 -26 100 -25 132 1 22 17 24 27
24 105 0 109 -14 127 -99 131 -45 1 -56 -1 -57 -14z m92 -48 c10 -59 6 -123
-6 -133 -23 -19 -28 -7 -29 70 -1 60 1 70 17 70 9 0 18 -3 18 -7z"/>
<path d="M2759 1761 c0 -3 -1 -60 -2 -126 l-1 -120 29 0 30 0 -3 60 c-3 69 1
68 26 -6 17 -48 22 -54 49 -57 l30 -3 -1 128 c-1 106 -4 128 -16 129 -36 1
-46 -13 -43 -66 4 -60 -10 -59 -26 2 -6 24 -14 48 -18 53 -9 11 -53 16 -54 6z"/>
<path d="M707 1453 c-4 -3 -7 -41 -7 -84 0 -75 1 -78 30 -99 27 -20 31 -20 54
-5 31 21 33 25 34 112 1 51 -2 72 -12 76 -25 10 -33 -8 -33 -76 0 -37 -3 -71
-7 -74 -13 -13 -20 10 -21 70 -1 74 -15 104 -38 80z"/>
<path d="M846 1452 c-3 -3 -6 -47 -6 -98 0 -87 1 -93 20 -91 20 1 23 9 21 62
-1 27 1 26 18 -15 13 -31 25 -45 37 -45 17 0 19 10 22 89 3 91 -3 111 -30 101
-11 -4 -14 -17 -11 -48 5 -49 -1 -46 -20 8 -12 35 -36 52 -51 37z"/>
<path d="M987 1453 c-2 -5 -3 -48 -3 -97 1 -84 2 -89 24 -92 21 -4 22 -2 22
90 0 76 -3 95 -16 100 -20 8 -22 8 -27 -1z"/>
<path d="M1046 1451 c-4 -5 7 -64 29 -161 2 -8 4 -18 4 -22 1 -5 11 -6 23 -4
19 2 25 14 39 74 9 40 14 72 12 72 -2 0 1 9 6 19 8 15 7 20 -5 25 -24 9 -32
-1 -40 -50 -8 -53 -12 -52 -22 6 -5 30 -13 44 -25 46 -9 1 -19 -1 -21 -5z"/>
<path d="M1184 1449 c-4 -7 -8 -124 -5 -171 1 -13 10 -16 46 -15 41 1 45 3 45
25 0 21 -4 24 -25 20 -19 -4 -25 -1 -25 13 0 12 7 19 19 19 10 0 22 7 25 16 8
20 4 25 -21 28 -24 4 -23 31 2 31 19 0 36 34 18 36 -44 6 -74 5 -79 -2z"/>
<path d="M1295 1451 c-10 -10 -5 -181 6 -181 5 0 7 -4 4 -10 -3 -6 1 -7 9 -4
9 3 17 10 17 15 1 5 3 18 4 29 4 36 6 36 19 0 12 -32 17 -35 52 -36 21 0 44
-2 49 -4 26 -8 42 -4 63 18 30 31 28 45 -13 91 -43 47 -44 55 -5 48 25 -5 30
-3 30 12 0 35 -59 42 -90 11 -28 -28 -25 -48 15 -86 51 -47 47 -66 -10 -44
-24 9 -26 8 -20 -9 3 -11 2 -22 -3 -25 -16 -9 -31 61 -20 92 13 34 -4 81 -29
83 -58 4 -74 4 -78 0z m69 -72 c-3 -5 -12 -9 -20 -9 -12 0 -13 8 -4 50 0 3 7
-4 15 -14 8 -10 12 -23 9 -27z"/>
<path d="M1556 1452 c-2 -4 -4 -46 -4 -93 0 -79 2 -88 22 -97 22 -10 22 -9 21
91 0 87 -2 100 -17 103 -10 1 -20 -1 -22 -4z"/>
<path d="M1614 1451 c-2 -2 -4 -12 -4 -22 0 -12 5 -16 15 -13 16 7 17 4 19
-91 1 -59 3 -61 36 -56 6 0 10 34 10 77 0 48 4 73 10 69 6 -3 13 1 17 11 11
29 52 -63 53 -118 0 -32 4 -48 13 -48 23 0 32 15 32 53 -1 20 9 59 21 85 28
58 28 61 7 57 -10 -2 -21 -4 -25 -4 -3 -1 -10 -13 -15 -28 l-10 -28 -14 30
c-14 29 -16 30 -87 30 -40 0 -75 -2 -78 -4z"/>
<path d="M1933 1447 c-4 -7 -8 -16 -9 -22 -1 -5 -11 -42 -22 -82 -19 -70 -19
-72 0 -76 11 -3 22 1 25 9 6 16 54 19 51 3 -2 -6 9 -12 23 -14 l25 -3 -22 90
c-12 49 -25 92 -28 96 -12 11 -36 10 -43 -1z m23 -115 c-11 -10 -15 4 -8 28
l7 25 3 -23 c2 -13 1 -26 -2 -30z"/>
<path d="M2039 1441 c-5 -68 -4 -150 2 -171 4 -14 8 -20 8 -14 1 5 17 10 36
10 43 0 76 28 68 57 -3 12 -6 41 -7 64 -2 53 -14 66 -66 68 -30 1 -40 -2 -41
-14z m61 -42 c0 -11 -4 -17 -10 -14 -5 3 -10 13 -10 21 0 8 5 14 10 14 6 0 10
-9 10 -21z m10 -74 c0 -7 -7 -15 -15 -19 -11 -4 -15 1 -15 19 0 18 4 23 15 19
8 -4 15 -12 15 -19z"/>
<path d="M2176 1450 c-2 -3 -3 -46 -3 -96 l-1 -92 50 1 c43 1 48 4 46 22 -2
11 -9 21 -15 21 -7 1 -20 2 -28 3 -21 2 -7 31 15 31 21 0 33 23 18 38 -6 6
-17 8 -25 5 -11 -4 -14 0 -11 13 2 10 10 20 18 20 8 1 19 2 23 3 4 0 4 9 -2
19 -6 11 -22 17 -46 17 -20 0 -38 -2 -39 -5z"/>
<path d="M2295 1453 c-10 -3 -10 -154 0 -180 2 -7 11 -13 20 -13 11 0 15 10
15 35 0 42 15 46 23 6 6 -30 34 -48 50 -32 6 6 6 20 -3 40 -6 16 -9 35 -5 41
29 47 0 101 -55 104 -20 2 -40 1 -45 -1z m63 -61 c2 -15 -2 -22 -12 -22 -11 0
-16 9 -16 26 0 31 23 28 28 -4z"/>
<path d="M2429 1437 c-8 -139 6 -202 37 -176 6 5 18 7 26 4 28 -11 52 32 53
95 2 71 -12 89 -74 95 -36 3 -41 1 -42 -18z m71 -78 c0 -37 -4 -49 -15 -49
-11 0 -15 12 -15 48 0 27 3 52 6 55 15 14 24 -7 24 -54z"/>
<path d="M2570 1359 l0 -97 35 2 c19 2 32 -1 29 -5 -3 -5 -1 -9 3 -9 5 0 14 9
20 19 10 15 9 22 -1 30 -8 7 -20 10 -27 9 -7 -2 -15 5 -17 15 -3 15 13 23 41
18 4 0 7 8 7 19 0 18 -16 26 -43 21 -5 -1 -7 6 -5 16 2 10 12 18 23 18 13 0
20 7 20 20 0 16 -7 20 -42 21 l-43 1 0 -98z"/>
<path d="M2686 1451 c-2 -3 -3 -46 -2 -96 l1 -89 47 -3 c39 -2 46 0 43 15 -2
9 -4 21 -4 25 -1 5 -9 6 -20 2 -11 -3 -21 0 -24 8 -7 18 11 37 28 31 7 -3 15
4 18 15 5 20 -7 27 -35 22 -5 0 -8 8 -8 20 0 15 5 19 19 14 20 -6 34 14 23 31
-8 10 -81 14 -86 5z"/>
<path d="M2797 1452 c-2 -6 -1 -123 2 -172 1 -9 10 -16 21 -17 17 -2 20 5 21
40 0 39 1 40 11 17 19 -48 25 -55 44 -55 17 0 19 9 20 90 1 52 -3 93 -9 97
-20 13 -38 -5 -37 -36 3 -52 0 -53 -18 -7 -10 26 -24 45 -34 47 -10 1 -19 -1
-21 -4z"/>
</g>
</svg>
